<svg xmlns="http://www.w3.org/2000/svg" viewBox="600 600 850 850" fill="#1F8A70" role="img" aria-label="Wakeel">
  <path d="M 914.518 636.438 C 944.215 634.604 992.423 636.114 1023.34 636.093 L 1103.51 636.045 C 1131.59 636.044 1156.04 634.791 1183.75 640.759 C 1227.3 650.138 1256.2 664.227 1293.88 686.794 C 1248.07 709.125 1209.33 734.374 1172.43 769.938 C 1164.3 777.773 1155.52 785.873 1149.27 795.247 C 1096.43 795.786 1043.59 795.982 990.755 795.835 C 960.857 795.786 914.573 792.747 886.667 799.486 C 828.933 813.426 793.235 870.784 793.135 927.092 C 793.374 959.119 793.422 991.148 793.278 1023.18 C 793.215 1041.6 794.154 1072.8 790.534 1089.38 C 787.831 1102.34 781.816 1114.37 773.076 1124.3 C 724.405 1179.95 636.839 1144.01 636.55 1071.55 C 636.318 1013.46 634.824 954.889 637.119 896.854 C 638.619 874.922 643.882 853.932 649.787 832.99 C 683.969 711.77 793.125 641.877 914.518 636.438 z"></path>
  <path d="M 1409.78 939.987 C 1410.24 941.45 1410.39 941.496 1410.41 942.842 C 1411.24 1004.61 1410.67 1066.39 1410.5 1128.17 C 1410.47 1138.42 1410.17 1148.68 1409.29 1158.89 C 1404.24 1218.77 1380.23 1275.47 1340.73 1320.76 C 1293.14 1374.98 1225.99 1408.11 1154.01 1412.9 C 1122.1 1415.03 1085.11 1414.06 1052.92 1413.45 C 1012.12 1412.67 970.725 1421.17 937.846 1392.41 L 936.849 1391.44 C 920.827 1375.51 912.843 1356.41 912.955 1333.73 C 913.129 1316.76 918.74 1300.3 928.963 1286.76 C 953.823 1253.93 986.673 1253.83 1023.02 1253.82 L 1089.59 1253.79 C 1103.42 1253.8 1117.4 1254.35 1131.31 1253.41 C 1193.97 1249.2 1249.7 1201.8 1255.05 1137.72 C 1256.82 1116.46 1256.05 1093.85 1256.06 1072.41 C 1289.29 1036.73 1323.42 995.182 1361.73 965.261 C 1370.7 958.255 1398.42 944.456 1409.78 939.987 z"></path>
  <path d="M 1339.8 732.093 C 1343.99 736.357 1353.72 749.504 1357.1 754.436 C 1384.12 793.883 1397 830.318 1406.07 876.6 C 1394.16 881.915 1377.65 888.823 1366.57 895.008 C 1314.89 923.862 1272.67 965.03 1234.21 1009.44 C 1210.74 1036.55 1187.39 1064.51 1160.9 1088.46 C 1125.1 1120.84 1065.53 1145.27 1016.93 1142.01 C 967.861 1138.72 918.274 1106.43 886.216 1070.58 C 860.726 1040.21 841.127 1005.5 843.147 964.682 C 844.243 942.525 852.287 922.084 868.985 907.09 C 882.922 894.576 899.924 889.569 918.478 890.582 C 929.195 891.167 939.984 893.796 949.337 899.173 C 969.586 910.814 1023.41 968.866 1041.53 988.993 C 1053.34 977.391 1065.94 963.177 1077.64 951.074 L 1178.02 847.241 C 1201.79 822.783 1227.04 794.461 1254.79 775.063 C 1280.82 756.866 1310.75 744.471 1339.8 732.093 z"></path>
  <path d="M 677.089 1258.78 C 682.713 1265.7 691.157 1282.18 698.222 1291.2 C 724.184 1324.39 751.334 1343.96 785.971 1365.97 C 762.243 1366.61 746.764 1368.67 723.857 1373.8 C 697.238 1381.05 673.229 1391.46 651.374 1408.41 C 677.089 1356.9 684.34 1315.55 677.089 1258.78 z"></path>
</svg>
